<?xml version="1.0" encoding="UTF-8"?>
<svg width="230px" height="229px" viewBox="0 0 230 229" version="1.1" xmlns="http://www.w3.org/2000/svg" xmlns:xlink="http://www.w3.org/1999/xlink">
    <!-- Generator: Sketch 48.2 (47327) - http://www.bohemiancoding.com/sketch -->
    <title>logo2</title>
    <desc>Created with Sketch.</desc>
    <defs>
        <polygon id="path-1" points="0 229 231 229 231 0 0 0"></polygon>
    </defs>
    <g id="Desktop-HD" stroke="none" stroke-width="1" fill="none" fill-rule="evenodd" transform="translate(-42.000000, -141.000000)">
        <g id="logo2" transform="translate(42.000000, 141.000000)">
            <path d="M158.326187,42 L155,44 C157.290965,43.3593985 159.630934,42.8962406 162,42.5909774 L158.326187,42 Z" id="Fill-1" fill="#FEFEFE"></path>
            <path d="M7.49118189,33.1835309 C10.215583,26.4296943 16.3703606,17.7684342 25,11 C12.395104,19.5525889 3.61226639,33.2321896 1,50 C2.10871282,44.4999376 5.31797842,38.5733001 7.49118189,33.1835309" id="Fill-3" fill="#FEFEFE"></path>
            <path d="M1,52.224 C1.044,51.818 1.102,51.41 1.168,51 C1.11,51.408 1.052,51.814 1,52.224" id="Fill-5" fill="#FEFEFE"></path>
            <path d="M7.92436485,89.4542662 C13.1040047,99.496529 19.6455186,105.735051 27.5311572,111.304411 C36.9674606,117.968617 48.6934551,121 60.8760971,121 C78.062497,121 96.1186246,108.55198 102.79084,99.1514673 C110.862042,87.7837806 115.491446,77.3577575 115.978751,61.9218901 C116.164315,56.0671283 115.110637,45.4701869 113.750377,39.8895395 C112.493386,34.7297384 110.463484,30.1036543 107.847846,26 C113.332456,35.2505559 113.234026,43.482051 113.234026,43.482051 C113.234026,43.482051 113.050077,43.5562232 112.727358,43.6836058 C113.695515,48.7031247 115.396244,60.4577966 113.234026,70.9176808 C111.434868,79.6006586 107.494469,89.8783373 101.792025,97.2487907 C91.9200505,110.019298 77.417059,116.21106 69.9945222,117.726751 C60.0128238,119.76326 46.2375636,118.639391 36.1622767,113.708556 C27.994259,109.711323 23.2486762,106.363902 15.8487297,97.2487907 C10.2076017,90.2943463 6.61251215,81.8564591 4.46804445,74.4198958 C3.73869952,71.8883684 3.21589476,69.4906733 2.80926883,67.1816623 C2.61241024,67.1542509 2.497845,67.1349016 2.497845,67.1349016 C2.497845,67.1349016 -0.041953469,60.3207393 0.461488159,52.4407556 C0.166200281,54.9738955 0,57.5650831 0,60.2207682 C0,70.329141 3.56120408,80.9938048 7.92436485,89.4542662" id="Fill-7" fill="#FEFEFE"></path>
            <path d="M2.10541085,66.6810417 C2.10541085,66.6810417 2.22013985,66.7002319 2.41727983,66.7258189 C4.70701223,67.031264 19.4941267,68.5728818 28.5868043,58.900989 C38.4631941,48.3927206 38.4631941,37.924432 38.4631941,37.924432 C38.4631941,37.924432 50.14293,50.5372326 57.2755192,53.2190719 C65.9771486,56.484615 78.4389808,55.6130572 87.3765319,52.7345177 C95.394635,50.1502289 109.654966,44.5450728 112.492489,43.4224424 C112.815669,43.2961065 112.999882,43.2225438 112.999882,43.2225438 C112.999882,43.2225438 113.098452,35.058686 107.606003,25.8841409 C107.601155,25.8761449 107.597923,25.868149 107.593075,25.8633514 C101.625551,15.9084023 90.8394088,7.59581986 76.3237658,2.61594652 C69.4335619,0.252345741 60.3828977,-0.524859926 51.833163,0.34669787 C46.9434451,0.844045529 42.2153174,1.87872056 38.152941,3.47151242 C38.1448615,3.47630999 38.1351661,3.47790918 38.1270866,3.48110756 C38.0689142,3.50509539 38.0139735,3.53228159 37.957417,3.55467023 C37.3094405,3.8121396 36.677623,4.0935968 36.0441896,4.37505399 C32.0383698,6.15974849 28.3363396,8.40021174 25.0011189,10.920533 C16.1718332,17.5939471 9.87628106,26.1336143 7.08723511,32.7926357 C4.86537057,38.1067395 1.58024287,43.9485755 0.44749593,49.3730233 C0.386091674,49.6656748 0.353773645,49.9535287 0.3052966,50.2445811 C0.25035595,50.5724147 0.205110709,50.8986492 0.167944975,51.2232845 C0.143706452,51.439175 0.0919976051,51.659863 0.0774544918,51.8741543 C0.0726067873,51.9525145 0.0709908859,52.0292756 0.0661431814,52.1076358 C-0.43801808,59.9212714 2.10541085,66.6810417 2.10541085,66.6810417" id="Fill-9" fill="#FEFEFE"></path>
            <path d="M38.0007978,71 C32.4770642,71 28,75.6799015 28,81.4532676 C28,87.2282278 32.4770642,93 38.0007978,93 C43.5229358,93 48,87.2282278 48,81.4532676 C48,75.6799015 43.5229358,71 38.0007978,71" id="Fill-11" fill="#FEFEFE"></path>
            <path d="M83.0015957,62 C77.4758258,62 73,66.6802406 73,72.452431 C73,78.2278096 77.4758258,84 83.0015957,84 C88.5241742,84 93,78.2278096 93,72.452431 C93,66.6802406 88.5241742,62 83.0015957,62" id="Fill-13" fill="#FEFEFE"></path>
            <path d="M76.4360083,103.033993 C75.834129,103.106871 75.0379922,103.455063 74.2896237,104.060757 C72.8422472,105.233275 72.4553247,105.727223 69.6545157,107.022824 C68.5112634,107.550781 65.5989952,108.316805 63.0800186,108.222874 C60.5610421,108.130563 56.2268737,107.395309 55.2938015,107.52325 C54.1983174,107.677102 52.507323,109.018049 53.136271,109.400251 C53.9467382,109.895819 60.0849523,111.259438 63.5147093,110.956592 C66.8951058,110.660223 68.6274993,110.210002 71.9171363,108.768646 C75.3660006,107.257652 77.8849772,103.91986 77.9454836,103.772486 C78.2543846,102.98055 77.1827846,102.944921 76.4360083,103.033993" id="Fill-15" fill="#FEFEFE"></path>
            <path d="M116,138 C116.286,138.286 116.566,138.574 116.848,138.862 C116.566,138.574 116.288,138.282 116,138" id="Fill-17" fill="#FEFEFE"></path>
            <path d="M42,144 C44.8234361,140.169027 49.7799233,135.355221 55.6648591,131.407965 C58.8993519,129.236814 62.4131729,127.334867 66,126 C56.4203148,129.405664 48.0357096,135.761416 42,144" id="Fill-19" fill="#FEFEFE"></path>
            <path d="M88,123.506 C86.1426069,123.186 84.2631395,123 82.3631745,123 C81.2326559,123 80.1147512,123.072 79,123.174 C83.1941135,122.85 86.3948844,123.34 88,123.506" id="Fill-21" fill="#FEFEFE"></path>
            <path d="M67,126.054 C67.054,126.036 67.108,126.016 67.162,126 C67.108,126.016 67.054,126.036 67,126.054" id="Fill-23" fill="#FEFEFE"></path>
            <path d="M132.129517,175.35497 C132.129517,175.35497 132.092578,175.773908 131.348973,176.170288 C131.35861,176.581169 131.381094,176.988828 131.381094,177.39971 C131.381094,204.817601 107.747964,227.122835 81.3668693,227.122835 C62.2242744,227.122835 45.6802799,213.616913 38.037054,195.734699 C37.4845704,195.855547 37.023632,195.82171 36.7024206,195.596128 L36.1338763,195.596128 C36.1338763,195.596128 35.645635,194.564895 35,192.818245 C42.0393484,213.170583 60.3612481,229 81.5355053,229 C108.684295,229 133,206.047023 133,177.83315 C133,174.855466 132.723758,171.903564 132.224274,169 C132.751061,172.807503 132.129517,175.35497 132.129517,175.35497" id="Fill-25" fill="#FEFEFE"></path>
            <path d="M119,141 C121.12429,143.570361 122.848222,146.191513 124,148 C122.507619,145.529683 120.832985,143.187115 119,141" id="Fill-27" fill="#FEFEFE"></path>
            <path d="M126,152 C128.058736,156.198578 129.91771,161.662417 131,166 C129.943053,161.107977 128.239117,156.392869 126,152" id="Fill-29" fill="#FEFEFE"></path>
            <path d="M32,173 C32.4523077,167.485003 33.2615385,162.074123 35,157 C33.2353846,162.023691 32.1938462,167.406914 32,173" id="Fill-31" fill="#FEFEFE"></path>
            <path d="M132,167 C132.004,167.022 132.01,167.044 132.014,167.066 C132.01,167.044 132.004,167.022 132,167" id="Fill-33" fill="#FEFEFE"></path>
            <path d="M36,153 C37.7368962,149.555728 39.744433,146.659443 41,145 C39.0746831,147.510836 37.3994519,150.187307 36,153" id="Fill-35" fill="#FEFEFE"></path>
            <path d="M118,140 C118.194,140.208 118.384,140.416 118.574,140.624 C118.384,140.414 118.192,140.208 118,140" id="Fill-37" fill="#FEFEFE"></path>
            <path d="M42.1886705,143.832366 C42.159654,143.8692 42.1241894,143.910839 42.0967849,143.947673 C41.9065655,144.205511 41.6341326,144.59307 41.3310712,145.033478 C40.147842,146.750267 38.2601563,149.74664 36.6255591,153.309939 C36.1612948,154.322075 35.7115387,155.363039 35.3149796,156.447242 C35.3117556,156.458453 35.3085315,156.469663 35.3036954,156.479272 C33.4837149,161.475897 32.6357877,166.802427 32.1618512,172.229851 C32.147343,172.404413 32.1279986,172.577373 32.1134904,172.753536 C31.4654548,180.567168 33.7400275,188.12136 35.2021376,192.033782 C35.8501732,193.769788 36.34023,194.793136 36.34023,194.793136 L36.9108882,194.793136 C37.2332939,195.018945 37.6959462,195.050974 38.2504841,194.932465 C40.8490746,194.37675 45.5964994,190.273752 48.9011585,184.646144 C52.8941539,177.847851 51.1902395,172.40121 51.1547748,171.874322 C52.452458,171.076784 65.3486886,173.536661 71.3277035,170.775705 C77.3115545,168.014749 75.2062448,166.544589 76.1363855,167.359743 C77.0149412,168.133259 77.006881,170.160736 75.9397179,172.631823 C74.8596586,175.136541 71.9805752,176.62592 72.2159314,178.180959 C72.3819703,179.276373 78.9380916,178.904829 84.0046981,176.62592 C88.972971,174.390251 92.5677952,171.16967 93.2706398,169.068525 C93.6140019,168.035569 102.149695,170.490641 106.634359,167.849797 C108.180294,166.936952 108.933112,166.378034 109.27325,166.043325 C109.278086,166.044926 109.278086,166.046528 109.282922,166.048129 C110.869158,166.544589 113.767586,171.352239 118.078151,173.456586 C123.828258,176.260782 128.477349,176.363277 130.560091,175.938884 C131.174273,175.813968 131.596625,175.652219 131.907747,175.487266 C132.654116,175.093301 132.692805,174.676916 132.692805,174.676916 C132.692805,174.676916 133.31666,172.144972 132.786302,168.359068 C132.715373,167.851398 132.618651,167.324511 132.500973,166.775202 C132.497749,166.757586 132.494525,166.739969 132.489689,166.722353 C132.423596,166.410064 132.372011,166.108985 132.286573,165.783885 C132.264005,165.697404 132.233376,165.602917 132.210808,165.514835 C131.040475,161.117165 129.031887,155.577638 126.804063,151.320898 C126.272094,150.303956 125.732064,149.338262 125.183974,148.50389 C125.124329,148.412606 125.051788,148.305306 124.988919,148.207616 C123.746045,146.327476 121.885763,143.59855 119.593458,140.925676 C119.26138,140.534914 118.91963,140.150558 118.568208,139.767804 C118.416677,139.60125 118.261923,139.434696 118.105556,139.268141 C117.992714,139.149632 117.88632,139.027919 117.771866,138.911011 C117.547794,138.678796 117.315662,138.451385 117.088366,138.220772 C116.86107,137.99176 116.636998,137.759545 116.406477,137.530533 C109.213605,130.413546 100.542502,124.340725 88.7102103,123.373429 C88.639281,123.367023 88.5506194,123.359016 88.473242,123.35261 C86.8321967,123.219687 83.5613902,122.827324 79.2733936,123.086764 C75.9913029,123.283746 72.1192096,123.877896 67.9472791,125.256772 C67.9037543,125.271186 67.8602295,125.287201 67.8167047,125.301614 C67.4636704,125.418522 67.1154722,125.527423 66.7592138,125.657143 C66.6947327,125.681165 66.6302515,125.713195 66.5657704,125.735616 C62.9225852,127.077658 59.3535534,128.989828 56.0682387,131.172648 C50.0908358,135.141121 45.0564698,139.980801 42.1886705,143.832366" id="Fill-39" fill="#FEFEFE"></path>
            <path d="M169.28,44.006 L169.248,44 C169.164,44 169.082,44.008 169,44.008 C169.094,44.006 169.186,44.008 169.28,44.006" id="Fill-41" fill="#FEFEFE"></path>
            <path d="M156,46 C153.267343,46.7594719 150.594726,47.7583238 148,49 C151.376876,47.6532721 153.593509,46.7129736 156,46" id="Fill-43" fill="#FEFEFE"></path>
            <path d="M226.985108,105.33708 L226.985108,105.338681 C226.985108,120.29765 225.131279,126.524014 219.629384,136.731537 C217.870582,139.987246 215.424043,144.386378 209.807794,149.397256 C201.841643,156.502806 194.015616,162.466536 173.945619,163.24323 C158.206593,163.851774 141.390058,157.002453 132.09192,146.234429 C128.181323,141.702379 125.206499,138.505922 121.893443,131.156955 C119.012035,124.765643 117.573747,119.940531 116.568718,113.750999 C115.889034,113.808651 115.505705,113.837476 115.505705,113.837476 C115.505705,113.837476 114.181771,107.973035 114.20432,107.258797 C114.238143,106.193845 113.66315,99.8810036 115.083721,92.1989382 C115.906751,87.7357494 117.794403,82.8433771 120.013844,77.6739573 C121.57615,74.037107 127.522578,64.763219 132.958437,59.3247587 C135.0297,57.2525067 137.03976,55.4957367 138.938687,54 L137.154114,55.0873718 C134.561008,57.1163851 132.093531,59.3920188 129.798391,61.9334901 C118.116528,74.8634455 112.485783,92.1621052 114.350887,109.396708 C118.002174,143.175696 141.315969,165 173.744291,165 C205.758683,165 229,139.911979 229,105.340282 C228.431449,105.340282 227.735659,105.340282 226.985108,105.33708" id="Fill-45" fill="#FEFEFE"></path>
            <path d="M221.53076,76.0627718 C223.261076,79.513234 225.435021,84.2614294 227,89 C222.359085,72.5513529 211.037546,58.7559205 196,51 C204.627026,55.7353624 216.722871,66.4797585 221.53076,76.0627718" id="Fill-47" fill="#FEFEFE"></path>
            <path d="M167,44 C164.638732,44.126 162.302113,44.458 160,44.98 C162.380986,44.46 164.711033,44.144 167,44" id="Fill-49" fill="#FEFEFE"></path>
            <path d="M65.5,202 C70.1937393,202 74,197.969169 74,192.997537 C74,188.030831 70.1937393,184 65.5,184 C60.8062607,184 57,188.030831 57,192.997537 C57,197.969169 60.8062607,202 65.5,202" id="Fill-51" fill="#FEFEFE"></path>
            <path d="M99.4991889,195 C104.194102,195 108,190.971178 108,186 C108,181.028822 104.194102,177 99.4991889,177 C94.8058975,177 91,181.028822 91,186 C91,190.971178 94.8058975,195 99.4991889,195" id="Fill-53" fill="#FEFEFE"></path>
            <path d="M75.8005269,216.576298 C76.4187423,217.046931 76.6513866,216.834225 79.5147001,217.420422 C82.3763867,218.004945 86.4224439,218.276271 89.6810899,217.611355 C90.9354165,217.356778 92.8746606,216.413837 94.4136916,215.410602 C96.8719113,213.821169 98.8127824,211.84652 99.3561612,211.493127 C100.244439,210.918653 100.154961,209.09809 99.4456397,209.002624 C98.7363189,208.908832 95.6745257,211.349089 93.1870221,213.164627 C92.0189203,214.017126 90.5612334,214.779183 89.3248026,215.125877 C87.9224297,215.517792 86.4403396,215.331884 85.2397002,215.351982 C82.6985095,215.385479 77.4941118,214.203035 75.785885,214.265004 C74.5722305,214.30855 74.9138759,215.911382 75.8005269,216.576298" id="Fill-55" fill="#FEFEFE"></path>
            <path d="M168.605809,44 C168.53007,44.0016047 168.455942,44 168.380202,44.0016047 C167.732387,44.0112329 167.084572,44.020861 166.430311,44.0545596 C164.185519,44.1700977 161.90044,44.4252441 159.565406,44.8408601 C159.434876,44.8633258 159.307569,44.8745587 159.177039,44.9002338 C158.044168,45.1088442 157.041828,45.3479437 156.068494,45.6175324 C153.678669,46.2818761 151.478998,47.1580395 148.123897,48.4129109 C148.073941,48.4321673 148.030431,48.4466095 147.980475,48.4674705 C147.977252,48.4674705 147.975641,48.4690752 147.972418,48.4690752 L138.835325,54.0421806 C136.93539,55.5393609 134.924263,57.2997112 132.8519,59.3761863 C127.413154,64.8273348 121.463569,74.1201229 119.900434,77.7627802 C117.679814,82.94434 115.791159,87.8450782 114.967693,92.3173628 C113.546368,100.015084 114.120055,106.342396 114.087825,107.409518 C114.065264,108.123607 115.389901,114 115.389901,114 C115.389901,114 115.773433,113.971115 116.453478,113.913346 C120.145379,113.592408 132.566668,112.355188 139.827997,109.664114 C145.447228,107.582825 154.28942,104.630187 160.026289,97.9690982 C166.89764,89.9841364 168.571968,80.4458301 168.571968,80.4458301 C168.571968,80.4458301 171.785259,90.3788914 187.695403,97.9674935 C202.446892,105.000871 219.225623,105.456604 226.928498,105.48228 C227.679448,105.485489 228.375607,105.485489 228.94446,105.485489 C228.94446,105.485489 229.294151,100.750034 228.238631,94.872037 C227.887329,92.9255422 227.320088,90.869928 226.651323,88.8127092 C225.110748,84.0724405 222.970703,79.3225437 221.267368,75.8692403 C216.534451,66.2843978 204.627225,55.5345468 196.134724,50.7974875 C195.512693,50.4524781 194.903553,50.1283297 194.321809,49.8507175 C192.4396,48.9440649 190.762049,48.0085278 188.907236,47.3875109 C188.72675,47.3281372 188.546264,47.2799963 188.365779,47.2206226 L168.605809,44 Z" id="Fill-57" fill="#FEFEFE"></path>
            <path d="M176.812925,149.998103 C177.228661,150.03686 180.431603,149.468982 180.831162,149.468982 C187.39396,148.454552 189.611755,142.790933 189.936902,142.118578 C190.266902,141.446223 189.218667,140.497513 188.731755,141.318156 C188.249695,142.130374 185.449547,148.137753 177.272337,148.068664 C169.444539,148.002945 167.147479,145.953864 167.147479,145.953864 C167.147479,145.953864 165.677037,146.206629 166.065273,147.025587 C166.458361,147.83949 168.603362,149.27351 176.812925,149.998103" id="Fill-59" fill="#FEFEFE"></path>
            <path d="M162.600319,181.347918 L162.600319,199 L168,199 L168,181.347918 C168,175.115445 165.297764,172 159.899681,172 C156.898793,172 155.0989,173.037428 154.498403,175.115445 C153.899503,173.037428 152.09961,172 149.098722,172 C143.699042,172 141,175.115445 141,181.347918 L141,199 L146.398084,199 L146.398084,181.347918 C146.398084,179.271481 147.298829,178.230891 149.098722,178.230891 C150.900213,178.230891 151.799361,179.271481 151.799361,181.347918 L151.799361,199 L157.197445,199 L157.197445,181.347918 C157.197445,179.271481 158.099787,178.230891 159.899681,178.230891 C161.699574,178.230891 162.600319,179.271481 162.600319,181.347918" id="Fill-61" fill="#FEFEFE"></path>
            <mask id="mask-2" fill="white">
                <use xlink:href="#path-1"></use>
            </mask>
            <g id="Clip-64"></g>
            <polygon id="Fill-63" fill="#FEFEFE" mask="url(#mask-2)" points="170 199 175 199 175 172 170 172"></polygon>
            <path d="M185.946951,184.463363 L182.36817,184.463363 L182.36817,178.232472 L185.946951,178.232472 C187.736341,178.232472 188.630242,179.271481 188.630242,181.347918 C188.630242,183.425936 187.736341,184.463363 185.946951,184.463363 Z M190.957878,189.240907 C192.98543,188.130733 194,185.500791 194,181.347918 C194,175.115445 191.315121,172 185.946951,172 L177,172 L177,199 L182.36817,199 L182.36817,190.692673 L185.946951,190.692673 L188.096759,199 L194,199 L190.957878,189.240907 Z" id="Fill-65" fill="#FEFEFE" mask="url(#mask-2)"></path>
            <polygon id="Fill-66" fill="#FEFEFE" mask="url(#mask-2)" points="196 199 201 199 201 172 196 172"></polygon>
            <path d="M221.899681,172 C218.898793,172 217.0989,173.037428 216.498403,175.115445 C215.899503,173.037428 214.098013,172 211.098722,172 C205.700639,172 203,175.115445 203,181.347918 L203,199 L208.398084,199 L208.398084,181.347918 C208.398084,179.271481 209.298829,178.230891 211.098722,178.230891 C212.898616,178.230891 213.800958,179.271481 213.800958,181.347918 L213.800958,199 L219.197445,199 L219.197445,181.347918 C219.197445,179.271481 220.099787,178.230891 221.899681,178.230891 C223.701171,178.230891 224.597125,179.271481 224.597125,181.347918 L224.597125,199 L230,199 L230,181.347918 C230,175.115445 227.300958,172 221.899681,172" id="Fill-67" fill="#FEFEFE" mask="url(#mask-2)"></path>
            <path d="M139.105604,212.076548 L135.422418,212.076548 L135.422418,208.846904 L139.105604,208.846904 C140.086383,208.846904 140.579203,209.381656 140.579203,210.460913 C140.579203,211.53692 140.086383,212.076548 139.105604,212.076548 M139.105604,220.154721 L135.422418,220.154721 L135.422418,216.920201 L139.105604,216.920201 C140.086383,216.920201 140.579203,217.461455 140.579203,218.539087 C140.579203,219.615093 140.086383,220.154721 139.105604,220.154721 M145,210.460913 C145,206.150387 143.035201,204 139.105604,204 L131,204 L131,225 L139.105604,225 C143.035201,225 145,222.844737 145,218.539087 C145,216.383824 144.051644,215.036378 142.156554,214.498375 C144.051644,213.957121 145,212.6113 145,210.460913" id="Fill-68" fill="#FEFEFE" mask="url(#mask-2)"></path>
            <path d="M154.369616,213.690557 L151.424039,213.690557 L151.424039,208.846904 L154.369616,208.846904 C155.844836,208.846904 156.579203,209.653096 156.579203,211.270356 C156.579203,212.88274 155.844836,213.690557 154.369616,213.690557 M161,211.270356 C161,206.421827 158.790412,204 154.369616,204 L147,204 L147,225 L151.424039,225 L151.424039,218.537461 L154.369616,218.537461 L156.138258,225 L161,225 L158.496989,217.407817 C160.165123,216.544737 161,214.498375 161,211.270356" id="Fill-69" fill="#FEFEFE" mask="url(#mask-2)"></path>
            <path d="M166.421309,215.302941 L166.421309,212.076548 C166.421309,209.921285 167.304922,208.845279 169.072148,208.845279 C170.743717,208.845279 171.578691,209.921285 171.578691,212.076548 L171.578691,215.302941 L166.421309,215.302941 Z M176,225 L176,212.076548 C176,206.686765 173.689635,204 169.072148,204 C164.359004,204 162,206.686765 162,212.076548 L162,225 L166.421309,225 L166.421309,220.153096 L171.578691,220.153096 L171.578691,225 L176,225 Z" id="Fill-70" fill="#FEFEFE" mask="url(#mask-2)"></path>
            <path d="M184.223105,220.154346 L177,220.154346 L177.432274,225 L184.223105,225 C188.073839,225 190,222.84457 190,218.538587 C190,214.229352 188.073839,212.075548 184.223105,212.075548 L182.778484,212.075548 C181.815403,212.075548 181.333863,211.535877 181.333863,210.459788 C181.333863,209.380447 181.815403,208.845654 182.778484,208.845654 L189.278484,208.845654 L188.844621,204 L182.778484,204 C178.926161,204 177,206.150553 177,210.459788 C177,214.769022 178.926161,216.921201 182.778484,216.921201 L184.223105,216.921201 C185.184597,216.921201 185.667726,217.460872 185.667726,218.538587 C185.667726,219.614676 185.184597,220.154346 184.223105,220.154346" id="Fill-71" fill="#FEFEFE" mask="url(#mask-2)"></path>
            <polygon id="Fill-72" fill="#FEFEFE" mask="url(#mask-2)" points="192 225 196 225 196 204 192 204"></polygon>
            <polygon id="Fill-73" fill="#FEFEFE" mask="url(#mask-2)" points="198 204 198 225 209.551155 225 210 220.153096 202.50165 220.153096 202.50165 204"></polygon>
            <path d="M161.686413,120.159779 C161.179843,117.807698 160.486556,116.447651 157.945588,113.530751 C158.312526,111.989898 158.940868,110.093832 158.89703,107.776953 C158.775259,107.296936 158.383966,106.714516 157.784849,107.157731 C157.184109,107.602547 156.854514,111.890694 156.255397,112.92433 C155.188678,112.63952 152.98867,112.759524 151.848887,112.92433 C151.288737,112.999532 150.8325,106.740117 149.421572,107.776953 C148.012268,108.816988 150.280468,110.954662 149.981722,113.348345 C148.850057,113.620354 146.503923,114.882797 145.672629,116.098839 C144.703326,114.789994 143.110553,110.89386 142.17697,112.111502 C141.246635,113.330744 144.281185,115.138806 144.407827,117.686094 C137.312599,135.84672 165.237274,136.787552 161.686413,120.159779" id="Fill-74" fill="#FEFEFE" mask="url(#mask-2)"></path>
            <path d="M207.832807,113.233364 C207.556132,110.661764 210.288507,108.369756 209.168708,107.293651 C208.052183,106.215919 207.083001,110.374044 206.323371,111.838653 C205.305074,110.746292 202.765881,109.84737 201.593694,109.751463 C200.915921,107.394434 202.836278,104.894357 201.262994,104.073461 C199.69462,103.250939 200.236511,109.60679 199.666789,109.613292 C198.507699,109.626297 196.294296,109.84737 195.277636,110.299269 C194.516369,109.356458 193.504621,105.107303 192.838308,104.752936 C192.165447,104.401819 191.869126,105.048783 191.82656,105.549449 C192.15235,107.877218 193.078967,109.683191 193.691254,111.173808 C191.625193,114.498032 191.152061,115.970769 191.021091,118.410701 C190.130491,135.646275 217.794761,130.353525 207.832807,113.233364" id="Fill-75" fill="#FEFEFE" mask="url(#mask-2)"></path>
            <polygon id="Fill-76" fill="#FEFEFE" mask="url(#mask-2)" points="132.685763 55 157 40.3418803 130 34"></polygon>
            <polygon id="Fill-77" fill="#FEFEFE" mask="url(#mask-2)" points="187 46 183.736682 25 160 41.4711293"></polygon>
        </g>
    </g>
</svg>