<?xml version="1.0" encoding="UTF-8"?>
<svg width="120px" height="46px" viewBox="0 0 120 46" version="1.1" xmlns="http://www.w3.org/2000/svg" xmlns:xlink="http://www.w3.org/1999/xlink">
    <!-- Generator: Sketch 48.2 (47327) - http://www.bohemiancoding.com/sketch -->
    <title>Page 1</title>
    <desc>Created with Sketch.</desc>
    <defs>
        <polygon id="path-1" points="0 46.3465 119.057 46.3465 119.057 0.9995 0 0.9995"></polygon>
    </defs>
    <g id="Desktop-HD" stroke="none" stroke-width="1" fill="none" fill-rule="evenodd" transform="translate(-538.000000, -334.000000)">
        <g id="Page-1" transform="translate(538.000000, 333.000000)">
            <path d="M32.1056,9.4907 L31.3406,9.3647 L30.6476,9.7897 C31.1256,9.6527 31.6116,9.5547 32.1056,9.4907" id="Fill-1" fill="#D53A0A"></path>
            <path d="M3.1324,20.2544 C2.0174,18.8784 1.3064,17.2094 0.8834,15.7384 C0.7394,15.2374 0.6354,14.7644 0.5554,14.3074 C1.0074,14.3674 3.9254,14.6754 5.7194,12.7464 C7.6694,10.6504 7.6694,8.5634 7.6694,8.5634 C7.6694,8.5634 9.9744,11.0784 11.3824,11.6124 C13.0994,12.2644 15.5594,12.0904 17.3224,11.5164 C18.9054,11.0014 21.7194,9.8834 22.2794,9.6594 C22.4714,10.6514 22.8074,12.9774 22.3804,15.0454 C22.0244,16.7634 21.2454,18.7964 20.1184,20.2544 C18.1674,22.7794 15.3014,24.0044 13.8344,24.3044 C11.8614,24.7074 9.1384,24.4844 7.1474,23.5094 C5.5324,22.7194 4.5944,22.0574 3.1324,20.2544 M20.3164,20.6304 C21.9114,18.3824 22.8264,16.3194 22.9234,13.2664 C22.9594,12.1084 22.7514,10.0134 22.4824,8.9084 C22.2334,7.8884 21.8324,6.9744 21.3154,6.1624 C21.3144,6.1604 21.3144,6.1584 21.3134,6.1574 C20.1354,4.1724 18.0064,2.5154 15.1414,1.5224 C13.7814,1.0504 11.9954,0.8954 10.3084,1.0684 C9.3424,1.1684 8.4094,1.3744 7.6084,1.6924 C7.6064,1.6924 7.6044,1.6934 7.6024,1.6944 C7.5914,1.6984 7.5804,1.7044 7.5694,1.7084 C7.4414,1.7604 7.3174,1.8174 7.1924,1.8724 C6.4014,2.2284 5.6704,2.6754 5.0124,3.1784 C2.4674,4.8584 0.6944,7.5494 0.1664,10.8464 C0.1544,10.9044 0.1474,10.9624 0.1384,11.0204 C0.1274,11.0854 0.1184,11.1504 0.1114,11.2154 C0.1064,11.2584 0.0964,11.3024 0.0934,11.3454 C0.0924,11.3604 0.0924,11.3754 0.0914,11.3924 C0.0334,11.8924 0.0004,12.4044 0.0004,12.9304 C0.0004,14.9294 0.7044,17.0384 1.5664,18.7124 C2.5904,20.6984 3.8824,21.9324 5.4414,23.0334 C7.3064,24.3524 9.6244,24.9514 12.0314,24.9514 C15.4284,24.9514 18.9974,22.4894 20.3164,20.6304" id="Fill-3" fill="#D53A0A"></path>
            <path d="M7.6031,15.0141 C6.4991,15.0141 5.6041,15.9511 5.6041,17.1061 C5.6041,18.2611 6.4991,19.4161 7.6031,19.4161 C8.7071,19.4161 9.6021,18.2611 9.6021,17.1061 C9.6021,15.9511 8.7071,15.0141 7.6031,15.0141" id="Fill-5" fill="#D53A0A"></path>
            <path d="M16.5143,17.6684 C17.6183,17.6684 18.5123,16.5134 18.5123,15.3574 C18.5123,14.2024 17.6183,13.2664 16.5143,13.2664 C15.4103,13.2664 14.5153,14.2024 14.5153,15.3574 C14.5153,16.5134 15.4103,17.6684 16.5143,17.6684" id="Fill-7" fill="#D53A0A"></path>
            <path d="M12.6461,22.9917 C13.3231,22.9327 13.6701,22.8447 14.3291,22.5607 C15.0201,22.2627 15.5241,21.6057 15.5361,21.5767 C15.5981,21.4207 15.3841,21.4137 15.2341,21.4307 C15.1141,21.4457 14.9541,21.5137 14.8041,21.6337 C14.5141,21.8647 14.4371,21.9617 13.8751,22.2167 C13.6471,22.3207 13.0631,22.4707 12.5591,22.4527 C12.0551,22.4347 11.1871,22.2907 11.0001,22.3157 C10.7801,22.3457 10.4411,22.6097 10.5671,22.6847 C10.7301,22.7827 11.9591,23.0517 12.6461,22.9917" id="Fill-9" fill="#D53A0A"></path>
            <path d="M16.0895,45.9751 C12.2885,45.9751 9.0035,43.3021 7.4855,39.7621 C7.9995,39.6521 8.9385,38.8341 9.5925,37.7141 C10.3825,36.3611 10.0455,35.2761 10.0385,35.1701 C10.2955,35.0121 12.8465,35.5011 14.0295,34.9521 C15.2135,34.4021 14.7965,34.1091 14.9805,34.2721 C15.1545,34.4251 15.1525,34.8291 14.9425,35.3221 C14.7285,35.8201 14.1585,36.1171 14.2055,36.4261 C14.2375,36.6451 15.5345,36.5711 16.5375,36.1171 C17.5205,35.6711 18.2315,35.0311 18.3705,34.6121 C18.4385,34.4071 20.1275,34.8951 21.0145,34.3701 C21.3195,34.1881 21.4695,34.0771 21.5365,34.0091 C21.5375,34.0101 21.5375,34.0101 21.5385,34.0101 C21.8525,34.1091 22.4255,35.0671 23.2785,35.4861 C24.4155,36.0441 25.3355,36.0651 25.7475,35.9801 C25.8695,35.9551 25.9525,35.9231 26.0145,35.8901 C26.0165,35.9711 26.0205,36.0521 26.0205,36.1331 C26.0205,41.5601 21.3285,45.9751 16.0895,45.9751 M26.1315,34.1551 C26.1315,34.1521 26.1305,34.1481 26.1295,34.1451 C26.1165,34.0821 26.1065,34.0231 26.0895,33.9571 C26.0845,33.9411 26.0785,33.9211 26.0745,33.9041 C25.8485,32.9161 25.4845,31.9641 25.0045,31.0781 C24.8995,30.8751 24.7925,30.6821 24.6845,30.5171 C24.6725,30.4981 24.6575,30.4771 24.6455,30.4571 C24.5575,30.3241 24.4495,30.1641 24.3325,29.9961 C24.2195,29.8321 24.1045,29.6731 23.9845,29.5171 C23.8575,29.3491 23.7245,29.1781 23.5785,29.0071 C23.5125,28.9301 23.4445,28.8531 23.3755,28.7771 C23.3455,28.7441 23.3145,28.7101 23.2835,28.6781 C23.2615,28.6541 23.2405,28.6291 23.2175,28.6061 C23.1735,28.5601 23.1275,28.5151 23.0825,28.4691 C23.0375,28.4231 22.9935,28.3771 22.9475,28.3311 C21.5245,26.9141 19.8095,25.7041 17.4685,25.5121 C17.4545,25.5111 17.4365,25.5091 17.4215,25.5081 C17.0465,25.4561 16.6655,25.4271 16.2815,25.4271 C16.1705,25.4271 16.0605,25.4361 15.9495,25.4411 C15.8375,25.4441 15.7225,25.4481 15.6015,25.4541 C14.9515,25.4951 14.1865,25.6131 13.3605,25.8871 C13.3525,25.8901 13.3435,25.8931 13.3345,25.8961 C13.2645,25.9191 13.1955,25.9411 13.1255,25.9671 C13.1125,25.9721 13.1005,25.9781 13.0875,25.9831 C11.2945,26.6181 9.7155,27.7691 8.5275,29.2561 C8.4325,29.3691 8.3435,29.4801 8.2645,29.5861 C8.2585,29.5941 8.2525,29.6021 8.2465,29.6101 C8.2085,29.6611 8.1545,29.7381 8.0945,29.8261 C8.0435,29.9011 7.9855,29.9901 7.9225,30.0871 C7.6965,30.4361 7.4905,30.7981 7.3075,31.1731 C7.2585,31.2711 7.2105,31.3711 7.1635,31.4741 C7.0715,31.6751 6.9835,31.8821 6.9045,32.0981 C6.9035,32.1011 6.9035,32.1031 6.9025,32.1051 C6.5365,33.0901 6.3205,34.1451 6.2805,35.2421 C6.2775,35.2761 6.2745,35.3111 6.2715,35.3451 C6.1435,36.9021 6.5925,38.4071 6.8815,39.1851 C8.2795,43.2131 11.9185,46.3461 16.1225,46.3461 C21.5135,46.3461 26.3425,41.8031 26.3425,36.2191 C26.3425,35.6301 26.2875,35.0451 26.1885,34.4711 C26.1745,34.3701 26.1545,34.2651 26.1315,34.1551" id="Fill-11" fill="#D53A0A"></path>
            <path d="M12.9752,37.4526 C12.0522,37.4526 11.3042,38.2356 11.3042,39.1996 C11.3042,40.1656 12.0522,40.9486 12.9752,40.9486 C13.8982,40.9486 14.6462,40.1656 14.6462,39.1996 C14.6462,38.2356 13.8982,37.4526 12.9752,37.4526" id="Fill-13" fill="#D53A0A"></path>
            <path d="M19.7511,36.1167 C18.8291,36.1167 18.0801,36.8997 18.0801,37.8647 C18.0801,38.8307 18.8291,39.6137 19.7511,39.6137 C20.6741,39.6137 21.4221,38.8307 21.4221,37.8647 C21.4221,36.8997 20.6741,36.1167 19.7511,36.1167" id="Fill-15" fill="#D53A0A"></path>
            <path d="M19.589,42.3872 C19.45,42.3682 18.849,42.8332 18.362,43.1792 C18.133,43.3412 17.847,43.4872 17.605,43.5532 C17.33,43.6272 17.039,43.5922 16.804,43.5962 C16.306,43.6022 15.286,43.3772 14.951,43.3892 C14.713,43.3972 14.78,43.7022 14.954,43.8292 C15.075,43.9182 15.121,43.8782 15.682,43.9902 C16.242,44.1012 17.036,44.1532 17.674,44.0262 C17.921,43.9782 18.3,43.7982 18.603,43.6072 C19.084,43.3042 19.464,42.9282 19.571,42.8612 C19.745,42.7512 19.728,42.4052 19.589,42.3872" id="Fill-17" fill="#D53A0A"></path>
            <path d="M44.9606,21.9243 C44.9606,24.9033 44.5926,26.1443 43.5036,28.1763 C43.1556,28.8243 42.6706,29.7003 41.5596,30.6983 C39.9816,32.1133 38.4316,33.3013 34.4586,33.4563 C31.3416,33.5773 28.0116,32.2133 26.1706,30.0693 C25.3966,29.1663 24.8076,28.5293 24.1506,27.0663 C23.5806,25.7933 23.2956,24.8323 23.0966,23.6003 C23.8276,23.5353 26.2856,23.2903 27.7226,22.7553 C28.8356,22.3413 30.5846,21.7543 31.7206,20.4313 C33.0806,18.8443 33.4116,16.9483 33.4116,16.9483 C33.4116,16.9483 34.0466,18.9223 37.1956,20.4303 C40.1156,21.8283 43.4366,21.9193 44.9606,21.9243 M45.2196,19.8163 C45.1496,19.4283 45.0376,19.0203 44.9056,18.6113 C44.0016,15.3403 41.7956,12.5983 38.8666,11.0563 C38.7426,10.9863 38.6226,10.9233 38.5076,10.8673 C38.1346,10.6883 37.8026,10.5013 37.4356,10.3783 C37.3996,10.3663 37.3646,10.3573 37.3286,10.3453 L33.4186,9.7043 L33.4136,9.7043 C33.3996,9.7043 33.3866,9.7053 33.3736,9.7053 C33.2456,9.7073 33.1166,9.7093 32.9876,9.7163 C32.5286,9.7363 32.0756,9.7893 31.6286,9.8723 C31.6036,9.8763 31.5776,9.8783 31.5516,9.8833 C31.3286,9.9253 31.1296,9.9733 30.9376,10.0273 C30.8126,10.0613 30.6906,10.0993 30.5666,10.1403 C30.1586,10.2643 29.7556,10.4053 29.3646,10.5823 C29.3546,10.5853 29.3466,10.5893 29.3356,10.5933 L29.3346,10.5933 L27.5266,11.7003 L27.1726,11.9173 C26.6596,12.3203 26.1706,12.7753 25.7166,13.2803 C23.4036,15.8553 22.2886,19.3003 22.6576,22.7333 C23.3806,29.4593 27.9966,33.8063 34.4186,33.8063 C40.7576,33.8063 45.3596,28.8103 45.3596,21.9253 C45.3596,21.9253 45.4286,20.9843 45.2196,19.8163" id="Fill-19" fill="#D53A0A"></path>
            <path d="M35.1495,30.2309 C33.6065,30.2179 33.1535,29.8309 33.1535,29.8309 C33.1535,29.8309 32.8635,29.8779 32.9405,30.0339 C33.0175,30.1869 33.4405,30.4589 35.0585,30.5959 C35.1405,30.6029 35.7725,30.4959 35.8515,30.4959 C37.1445,30.3029 37.5825,29.2319 37.6465,29.1049 C37.7115,28.9769 37.5045,28.7979 37.4085,28.9529 C37.3135,29.1069 36.7615,30.2439 35.1495,30.2309" id="Fill-21" fill="#D53A0A"></path>
            <path d="M31.1949,23.5337 C31.2669,23.2257 31.3909,22.8477 31.3819,22.3867 C31.3579,22.2907 31.2809,22.1747 31.1629,22.2627 C31.0459,22.3517 30.9809,23.2067 30.8629,23.4127 C30.6529,23.3557 30.2209,23.3797 29.9979,23.4127 C29.8869,23.4287 29.7979,22.1797 29.5209,22.3867 C29.2439,22.5937 29.6899,23.0197 29.6309,23.4967 C29.4079,23.5517 28.9469,23.8037 28.7839,24.0457 C28.5939,23.7847 28.2809,23.0087 28.0979,23.2507 C27.9149,23.4937 28.5109,23.8537 28.5359,24.3617 C27.1419,27.9807 32.6269,28.1687 31.9299,24.8547 C31.8299,24.3867 31.6939,24.1147 31.1949,23.5337" id="Fill-23" fill="#D53A0A"></path>
            <path d="M41.0387,23.3374 C40.9847,22.8324 41.5177,22.3834 41.2987,22.1714 C41.0807,21.9604 40.8927,22.7754 40.7447,23.0634 C40.5457,22.8494 40.0517,22.6724 39.8237,22.6534 C39.6917,22.1914 40.0647,21.7004 39.7587,21.5394 C39.4537,21.3784 39.5587,22.6254 39.4477,22.6264 C39.2217,22.6294 38.7907,22.6724 38.5927,22.7614 C38.4447,22.5764 38.2477,21.7424 38.1177,21.6734 C37.9867,21.6044 37.9287,21.7314 37.9207,21.8294 C37.9837,22.2864 38.1647,22.6404 38.2837,22.9334 C37.8807,23.5854 37.7887,23.8734 37.7637,24.3534 C37.5897,27.7334 42.9797,26.6954 41.0387,23.3374" id="Fill-25" fill="#D53A0A"></path>
            <polygon id="Fill-27" fill="#D53A0A" points="31.1608 9.1206 25.7778 7.8356 26.3128 12.0896"></polygon>
            <polygon id="Fill-29" fill="#D53A0A" points="36.5084 5.8862 31.7294 9.1212 37.1654 10.0122"></polygon>
            <path d="M65.4669,13.8042 L65.4669,27.9572 L69.7539,27.9572 L69.7539,13.8042 C69.7539,8.8062 67.6089,6.3082 63.3219,6.3082 C60.9399,6.3082 59.5099,7.1412 59.0339,8.8062 C58.5589,7.1412 57.1299,6.3082 54.7469,6.3082 C50.4599,6.3082 48.3169,8.8062 48.3169,13.8042 L48.3169,27.9572 L52.6029,27.9572 L52.6029,13.8042 C52.6029,12.1382 53.3179,11.3052 54.7469,11.3052 C56.1769,11.3052 56.8919,12.1382 56.8919,13.8042 L56.8919,27.9572 L61.1769,27.9572 L61.1769,13.8042 C61.1769,12.1382 61.8929,11.3052 63.3219,11.3052 C64.7519,11.3052 65.4669,12.1382 65.4669,13.8042" id="Fill-31" fill="#D53A0A"></path>
            <mask id="mask-2" fill="white">
                <use xlink:href="#path-1"></use>
            </mask>
            <g id="Clip-34"></g>
            <polygon id="Fill-33" fill="#D53A0A" mask="url(#mask-2)" points="71.182 27.9575 75.468 27.9575 75.468 6.3085 71.182 6.3085"></polygon>
            <path d="M84.0436,16.3012 L81.1856,16.3012 L81.1856,11.3052 L84.0436,11.3052 C85.4726,11.3052 86.1876,12.1382 86.1876,13.8042 C86.1876,15.4692 85.4726,16.3012 84.0436,16.3012 Z M88.0446,20.1332 C89.6646,19.2422 90.4756,17.1332 90.4756,13.8042 C90.4756,8.8062 88.3316,6.3082 84.0436,6.3082 L76.8976,6.3082 L76.8976,27.9572 L81.1856,27.9572 L81.1856,21.2962 L84.0436,21.2962 L85.7606,27.9572 L90.4756,27.9572 L88.0446,20.1332 Z" id="Fill-35" fill="#D53A0A" mask="url(#mask-2)"></path>
            <polygon id="Fill-36" fill="#D53A0A" mask="url(#mask-2)" points="91.904 27.9575 96.191 27.9575 96.191 6.3085 91.904 6.3085"></polygon>
            <path d="M112.6261,6.3081 C110.2431,6.3081 108.8141,7.1411 108.3371,8.8061 C107.8621,7.1411 106.4311,6.3081 104.0511,6.3081 C99.7651,6.3081 97.6201,8.8061 97.6201,13.8041 L97.6201,27.9571 L101.9061,27.9571 L101.9061,13.8041 C101.9061,12.1381 102.6221,11.3051 104.0511,11.3051 C105.4801,11.3051 106.1951,12.1381 106.1951,13.8041 L106.1951,27.9571 L110.4801,27.9571 L110.4801,13.8041 C110.4801,12.1381 111.1961,11.3051 112.6261,11.3051 C114.0561,11.3051 114.7681,12.1381 114.7681,13.8041 L114.7681,27.9571 L119.0571,27.9571 L119.0571,13.8041 C119.0571,8.8061 116.9141,6.3081 112.6261,6.3081" id="Fill-37" fill="#D53A0A" mask="url(#mask-2)"></path>
            <path d="M53.2799,36.8227 L50.8449,36.8227 L50.8449,34.6927 L53.2799,34.6927 C53.9279,34.6927 54.2539,35.0467 54.2539,35.7577 C54.2539,36.4667 53.9279,36.8227 53.2799,36.8227 M53.2799,42.1467 L50.8449,42.1467 L50.8449,40.0147 L53.2799,40.0147 C53.9279,40.0147 54.2539,40.3717 54.2539,41.0817 C54.2539,41.7917 53.9279,42.1467 53.2799,42.1467 M57.1759,35.7577 C57.1759,32.9167 55.8779,31.4997 53.2799,31.4997 L47.9239,31.4997 L47.9239,45.3417 L53.2799,45.3417 C55.8779,45.3417 57.1759,43.9207 57.1759,41.0817 C57.1759,39.6617 56.5489,38.7737 55.2959,38.4197 C56.5489,38.0617 57.1759,37.1757 57.1759,35.7577" id="Fill-38" fill="#D53A0A" mask="url(#mask-2)"></path>
            <path d="M63.0172,37.8862 L61.0702,37.8862 L61.0702,34.6932 L63.0172,34.6932 C63.9932,34.6932 64.4782,35.2252 64.4782,36.2902 C64.4782,37.3542 63.9932,37.8862 63.0172,37.8862 M67.3992,36.2902 C67.3992,33.0962 65.9392,31.4992 63.0172,31.4992 L58.1472,31.4992 L58.1472,45.3412 L61.0702,45.3412 L61.0702,41.0812 L63.0172,41.0812 L64.1862,45.3412 L67.3992,45.3412 L65.7452,40.3362 C66.8482,39.7672 67.3992,38.4192 67.3992,36.2902" id="Fill-39" fill="#D53A0A" mask="url(#mask-2)"></path>
            <path d="M71.2955,38.9497 L71.2955,36.8227 C71.2955,35.4027 71.8795,34.6927 73.0475,34.6927 C74.1505,34.6927 74.7035,35.4027 74.7035,36.8227 L74.7035,38.9497 L71.2955,38.9497 Z M77.6245,45.3417 L77.6245,36.8227 C77.6245,33.2697 76.0985,31.4997 73.0475,31.4997 C69.9325,31.4997 68.3735,33.2697 68.3735,36.8227 L68.3735,45.3417 L71.2955,45.3417 L71.2955,42.1467 L74.7035,42.1467 L74.7035,45.3417 L77.6245,45.3417 Z" id="Fill-40" fill="#D53A0A" mask="url(#mask-2)"></path>
            <path d="M83.4679,42.1469 L78.5979,42.1469 L78.8899,45.3409 L83.4679,45.3409 C86.0639,45.3409 87.3619,43.9199 87.3619,41.0819 C87.3619,38.2429 86.0639,36.8229 83.4679,36.8229 L82.4939,36.8229 C81.8449,36.8229 81.5199,36.4659 81.5199,35.7569 C81.5199,35.0459 81.8449,34.6929 82.4939,34.6929 L86.8759,34.6929 L86.5839,31.4999 L82.4939,31.4999 C79.8969,31.4999 78.5979,32.9169 78.5979,35.7569 C78.5979,38.5979 79.8969,40.0149 82.4939,40.0149 L83.4679,40.0149 C84.1169,40.0149 84.4419,40.3719 84.4419,41.0819 C84.4419,41.7919 84.1169,42.1469 83.4679,42.1469" id="Fill-41" fill="#D53A0A" mask="url(#mask-2)"></path>
            <polygon id="Fill-42" fill="#D53A0A" mask="url(#mask-2)" points="88.337 45.3415 91.258 45.3415 91.258 31.4995 88.337 31.4995"></polygon>
            <polygon id="Fill-43" fill="#D53A0A" mask="url(#mask-2)" points="92.2306 31.4995 92.2306 45.3415 99.7306 45.3415 100.0216 42.1465 95.1536 42.1465 95.1536 31.4995"></polygon>
        </g>
    </g>
</svg>