<?xml version="1.0" encoding="UTF-8"?>
<svg width="110px" height="64px" viewBox="0 0 110 64" version="1.1" xmlns="http://www.w3.org/2000/svg" xmlns:xlink="http://www.w3.org/1999/xlink">
    <!-- Generator: Sketch 48.2 (47327) - http://www.bohemiancoding.com/sketch -->
    <title>logo resumida/red</title>
    <desc>Created with Sketch.</desc>
    <defs></defs>
    <g id="Desktop-HD" stroke="none" stroke-width="1" fill="none" fill-rule="evenodd" transform="translate(-548.000000, -224.000000)">
        <g id="logo-resumida/red" transform="translate(548.000000, 224.000000)" fill="#D53A0A">
            <path d="M27.911196,12.0056352 L27.911196,33.8869874 L34.5385231,33.8869874 L34.5385231,12.0056352 C34.5385231,4.28061426 31.2199591,0.419083857 24.5965524,0.419083857 C20.9133973,0.419083857 18.7042883,1.70691405 17.9672652,4.28061426 C17.2322023,1.70691405 15.0230933,0.419083857 11.3399382,0.419083857 C4.71261111,0.419083857 1.39992767,4.28061426 1.39992767,12.0056352 L1.39992767,33.8869874 L8.02529455,33.8869874 L8.02529455,12.0056352 C8.02529455,9.43193501 9.13082914,8.14214465 11.3399382,8.14214465 C13.5510073,8.14214465 14.6545818,9.43193501 14.6545818,12.0056352 L14.6545818,33.8869874 L21.2799486,33.8869874 L21.2799486,12.0056352 C21.2799486,9.43193501 22.3874434,8.14214465 24.5965524,8.14214465 C26.8056614,8.14214465 27.911196,9.43193501 27.911196,12.0056352" id="Fill-1"></path>
            <polygon id="Fill-4" points="36 34 42 34 42 1 36 1"></polygon>
            <path d="M56.0530445,16.2329995 L51.6326111,16.2329995 L51.6326111,8.6155333 L56.0530445,8.6155333 C58.2632611,8.6155333 59.3673889,9.88736602 59.3673889,12.4252328 C59.3673889,14.9630996 58.2632611,16.2329995 56.0530445,16.2329995 Z M62.2404744,22.0722193 C64.7468248,20.71534 66,17.5009664 66,12.4252328 C66,4.80583377 62.6836944,1 56.0530445,1 L45,1 L45,34 L51.6326111,34 L51.6326111,23.8465999 L56.0530445,23.8465999 L58.7084423,34 L66,34 L62.2404744,22.0722193 Z" id="Fill-6"></path>
            <polygon id="Fill-7" points="68 34 74 34 74 1 68 1"></polygon>
            <path d="M100.100976,1 C96.433008,1 94.233008,2.26982547 93.499024,4.80754363 C92.766992,2.26982547 90.5630878,1 86.899024,1 C80.300976,1 77,4.80754363 77,12.4245637 L77,34 L83.5980479,34 L83.5980479,12.4245637 C83.5980479,9.8868455 84.699024,8.61508727 86.899024,8.61508727 C89.099024,8.61508727 90.2019521,9.8868455 90.2019521,12.4245637 L90.2019521,34 L96.7980479,34 L96.7980479,12.4245637 C96.7980479,9.8868455 97.899024,8.61508727 100.100976,8.61508727 C102.302928,8.61508727 103.398048,9.8868455 103.398048,12.4245637 L103.398048,34 L110,34 L110,12.4245637 C110,4.80754363 106.702928,1 100.100976,1" id="Fill-8"></path>
            <path d="M9.84251969,48.6149381 L5.37007874,48.6149381 L5.37007874,44.7701238 L9.84251969,44.7701238 C11.0314961,44.7701238 11.6299213,45.4067337 11.6299213,46.6896285 C11.6299213,47.9705882 11.0314961,48.6149381 9.84251969,48.6149381 M9.84251969,58.2298762 L5.37007874,58.2298762 L5.37007874,54.381192 L9.84251969,54.381192 C11.0314961,54.381192 11.6299213,55.0255418 11.6299213,56.3084365 C11.6299213,57.5893963 11.0314961,58.2298762 9.84251969,58.2298762 M13.5472441,51.498065 C15.8484252,50.8537152 17,49.251548 17,46.6896285 C17,41.5599845 14.6141732,39 9.84251969,39 L0,39 L0,64 L9.84251969,64 C14.6141732,64 17,61.4342105 17,56.3084365 C17,53.7426471 15.8484252,52.1385449 13.5472441,51.498065" id="Fill-9"></path>
            <path d="M26.9488189,50.5363777 L23.3720472,50.5363777 L23.3720472,44.7701238 L26.9488189,44.7701238 C28.7401575,44.7701238 29.6318898,45.7298762 29.6318898,47.6551858 C29.6318898,49.5746904 28.7401575,50.5363777 26.9488189,50.5363777 M35,47.6551858 C35,41.8850619 32.3169291,39 26.9488189,39 L18,39 L18,64 L23.3720472,64 L23.3720472,56.3084365 L26.9488189,56.3084365 L29.0964567,64 L35,64 L31.9606299,54.9616873 C33.9862205,53.9342105 35,51.498065 35,47.6551858" id="Fill-10"></path>
            <path d="M43.3707006,52.4558824 L43.3707006,48.6149381 C43.3707006,46.0510836 44.4436595,44.7701238 46.5895773,44.7701238 C48.6173712,44.7701238 49.6332368,46.0510836 49.6332368,48.6149381 L49.6332368,52.4558824 L43.3707006,52.4558824 Z M55,64 L55,48.6149381 C55,42.1985294 52.194557,39 46.5895773,39 C40.8664737,39 38,42.1985294 38,48.6149381 L38,64 L43.3707006,64 L43.3707006,58.2298762 L49.6332368,58.2298762 L49.6332368,64 L55,64 Z" id="Fill-11"></path>
            <path d="M64.8899756,58.2313647 L56,58.2313647 L56.5339853,64 L64.8899756,64 C69.6312958,64 72,61.4359471 72,56.3078412 C72,51.1797353 69.6312958,48.6156823 64.8899756,48.6156823 L63.1139364,48.6156823 C61.9266504,48.6156823 61.3339853,47.9712826 61.3339853,46.6902237 C61.3339853,45.4072297 61.9266504,44.7686353 63.1139364,44.7686353 L71.1139364,44.7686353 L70.5779951,39 L63.1139364,39 C58.3706601,39 56,41.5601827 56,46.6902237 C56,51.8202647 58.3706601,54.3823825 63.1139364,54.3823825 L64.8899756,54.3823825 C66.0733496,54.3823825 66.6679707,55.0248471 66.6679707,56.3078412 C66.6679707,57.5889001 66.0733496,58.2313647 64.8899756,58.2313647" id="Fill-12"></path>
            <polygon id="Fill-13" points="74 64 79 64 79 39 74 39"></polygon>
            <polygon id="Fill-14" points="81 39 81 64 94.4782011 64 95 58.2298762 86.2526475 58.2298762 86.2526475 39"></polygon>
        </g>
    </g>
</svg>