<?xml version="1.0" encoding="UTF-8"?>
<svg width="411px" height="410px" viewBox="0 0 411 410" version="1.1" xmlns="http://www.w3.org/2000/svg" xmlns:xlink="http://www.w3.org/1999/xlink">
    <!-- Generator: Sketch 48.2 (47327) - http://www.bohemiancoding.com/sketch -->
    <title>simbolo_marcadagua</title>
    <desc>Created with Sketch.</desc>
    <defs></defs>
    <g id="Desktop-HD" stroke="none" stroke-width="1" fill="none" fill-rule="evenodd" transform="translate(-87.000000, -488.000000)">
        <g id="simbolo_marcadagua" transform="translate(87.000000, 488.000000)" fill="#404040">
            <path d="M291,77.1819549 L284.177204,76 L278,80 C282.254649,78.7218045 286.600306,77.7924812 291,77.1819549" id="Fill-1"></path>
            <path d="M28.3752444,175.113316 C18.2756889,162.631211 11.8363556,147.480158 7.99991111,134.129632 C6.69702222,129.584895 5.75813333,125.280421 5.03013333,121.132263 C9.12368889,121.685158 35.5570222,124.475684 51.8128,106.968316 C69.4725778,87.9498947 69.4725778,68.9980526 69.4725778,68.9980526 C69.4725778,68.9980526 90.3505778,91.8288421 103.105022,96.6833158 C118.6588,102.594368 140.9408,101.016737 156.919244,95.8091053 C171.253911,91.1283158 196.748356,80.9822632 201.821244,78.9501579 C203.554578,87.9614737 206.602356,109.064105 202.728356,127.842263 C199.507244,143.430421 192.452578,161.878579 182.243244,175.113316 C164.569022,198.039632 138.603689,209.155421 125.3148,211.873579 C107.444133,215.532526 82.7816889,213.514895 64.7434667,204.662789 C50.1170222,197.486737 41.6208,191.474368 28.3752444,175.113316 M184.031467,178.529105 C198.481689,158.121211 206.767022,139.403842 207.642356,111.689632 C207.971689,101.181737 206.088133,82.1575263 203.6528,72.1388421 C201.402356,62.8756842 197.768133,54.5706842 193.085244,47.2035789 C193.076578,47.192 193.0708,47.1775263 193.062133,47.1630526 C182.390578,29.1433158 163.107244,14.0993684 137.159244,5.08515789 C124.838133,0.806736842 108.660356,-0.600105263 93.3752444,0.977526316 C84.6334667,1.87778947 76.1805778,3.75068421 68.9179111,6.63384211 C68.9005778,6.64252632 68.8832444,6.64542105 68.8688,6.65410526 C68.7648,6.69463158 68.6694667,6.74384211 68.5654667,6.78436842 C67.4070222,7.25042105 66.2774667,7.75989474 65.1479111,8.26936842 C57.9863556,11.4998947 51.3679111,15.5554211 45.4081333,20.1175263 C22.3519111,35.3814737 6.2868,59.7956842 1.50568889,89.7214737 C1.3988,90.2541053 1.33813333,90.7722632 1.25146667,91.2991053 C1.15613333,91.8925263 1.07235556,92.4830526 1.0088,93.0706842 C0.965466667,93.4614737 0.873022222,93.8638421 0.847022222,94.2459474 C0.835466667,94.3906842 0.835466667,94.5296316 0.8268,94.6714737 C0.301022222,99.2191053 0.000577777778,103.870947 0.000577777778,108.638579 C0.000577777778,126.785684 6.37635556,145.931474 14.1879111,161.120158 C23.4612444,179.148579 35.1728,190.345421 49.2908,200.346737 C66.1850222,212.310684 87.1756889,217.752789 108.989689,217.752789 C139.759244,217.752789 172.085911,195.405421 184.031467,178.529105" id="Fill-3"></path>
            <path d="M69.001436,127 C59.0587156,127 51,135.511193 51,146.007462 C51,156.506629 59.0587156,167 69.001436,167 C78.9412844,167 87,156.506629 87,146.007462 C87,135.511193 78.9412844,127 69.001436,127" id="Fill-6"></path>
            <path d="M149.002872,151 C158.943514,151 167,140.502971 167,130.005941 C167,119.51181 158.943514,111 149.002872,111 C139.056486,111 131,119.51181 131,130.005941 C131,140.502971 139.056486,151 149.002872,151" id="Fill-8"></path>
            <path d="M113.926482,198.924029 C120.011195,198.405341 123.129502,197.617389 129.050848,195.094809 C135.255936,192.450351 139.792959,186.608736 139.90187,186.350809 C140.457892,184.964807 138.529013,184.905285 137.184816,185.058341 C136.101433,185.185887 134.665521,185.795274 133.321324,186.855325 C130.716047,188.907402 130.016721,189.771881 124.975265,192.039369 C122.920278,192.96337 117.678196,194.304023 113.144039,194.13963 C108.609882,193.980906 100.808381,192.694106 99.1259853,192.918021 C97.1569804,193.187285 94.1131911,195.534135 95.2452973,196.200209 C96.7041379,197.067523 107.752921,199.454054 113.926482,198.924029" id="Fill-10"></path>
            <path d="M146.130188,406.643214 C111.703364,406.643214 81.9474715,382.491646 68.2004284,350.517181 C72.8569179,349.514468 81.363966,342.132421 87.2856802,332.010199 C94.4408443,319.778821 91.3875506,309.976431 91.3211119,309.028463 C93.6493566,307.593545 116.758485,312.019316 127.472455,307.054731 C138.192203,302.084383 134.422526,299.439293 136.089272,300.908787 C137.663581,302.297603 137.649138,305.948288 135.736858,310.394228 C133.798579,314.897796 128.642355,317.577461 129.064097,320.378144 C129.361627,322.346114 141.10973,321.68052 150.188729,317.577461 C159.091521,313.555081 165.533191,307.763545 166.792638,303.980318 C167.407919,302.124722 182.703273,306.541848 190.736584,301.787603 C193.50968,300.145227 194.858675,299.139632 195.468178,298.537427 C195.476844,298.540309 195.476844,298.54319 195.48551,298.546071 C198.327933,299.439293 203.52171,308.089139 211.245936,311.875248 C221.54683,316.920511 229.88056,317.107799 233.612684,316.341357 C234.716145,316.116611 235.470081,315.825594 236.030477,315.528814 C236.047809,316.263561 236.085361,316.992545 236.085361,317.727292 C236.085361,366.756533 193.581896,406.643214 146.130188,406.643214 M237.090608,299.854209 C237.084831,299.825396 237.079054,299.790819 237.070388,299.759124 C236.949065,299.197259 236.859517,298.655563 236.706419,298.070647 C236.665978,297.917935 236.613982,297.745053 236.570653,297.586578 C234.522606,288.663003 231.223778,280.06214 226.885039,272.049075 C225.928899,270.21941 224.961204,268.48195 223.979066,266.98076 C223.872187,266.819404 223.742198,266.623472 223.629541,266.45059 C222.835164,265.2433 221.853026,263.796856 220.790006,262.272616 C219.773205,260.803122 218.730405,259.35956 217.641388,257.947693 C216.48882,256.432097 215.284256,254.893451 213.961259,253.34616 C213.36331,252.645989 212.753807,251.951581 212.126972,251.262936 C211.849662,250.966155 211.575241,250.663613 211.295043,250.366832 C211.092838,250.15073 210.902188,249.931747 210.697094,249.721407 C210.295573,249.306491 209.882498,248.894457 209.475199,248.479541 C209.065012,248.067506 208.663491,247.649709 208.250415,247.240556 C195.361299,234.432905 179.826187,223.506784 158.620672,221.763561 C158.496461,221.754917 158.334697,221.74051 158.196042,221.728984 C154.796112,221.267967 151.352851,221 147.86915,221 C146.861014,221 145.867322,221.083559 144.867852,221.121017 C143.85105,221.146949 142.805362,221.184407 141.710567,221.250678 C135.829294,221.605086 128.890778,222.674071 121.414975,225.157804 C121.336982,225.180855 121.258988,225.209669 121.180995,225.235601 C120.551271,225.44594 119.924436,225.644754 119.286046,225.878144 C119.170501,225.918483 119.054955,225.976111 118.93941,226.01645 C102.702358,231.756121 88.4006957,242.157835 77.6318416,255.59074 C76.7739152,256.613623 75.970873,257.613455 75.2573786,258.57583 C75.2053831,258.644983 75.1447216,258.717017 75.0927261,258.786169 C74.7547551,259.250069 74.2636861,259.944477 73.7206216,260.736851 C73.2555504,261.416852 72.7240404,262.220752 72.1578667,263.10533 C70.1098202,266.248895 68.2495353,269.525002 66.585678,272.916364 C66.1494932,273.800942 65.7133084,274.699927 65.2886782,275.627725 C64.4567495,277.448745 63.6508187,279.32163 62.940213,281.272311 C62.9344357,281.292481 62.9286584,281.312651 62.9199925,281.33282 C59.6067211,290.230463 57.6539997,299.762006 57.2900309,309.671006 C57.2611445,309.982193 57.2293695,310.296262 57.2033717,310.61033 C56.042138,324.671372 60.1180106,338.262753 62.7351194,345.299036 C75.3989221,381.693509 108.35254,410 146.433496,410 C195.263085,410 239,368.955011 239,318.502378 C239,313.177623 238.503154,307.898969 237.604786,302.706757 C237.477686,301.790484 237.301479,300.842516 237.090608,299.854209" id="Fill-12"></path>
            <path d="M117,330 C108.716931,330 102,337.165922 102,345.992703 C102,354.834078 108.716931,362 117,362 C125.283069,362 132,354.834078 132,345.992703 C132,337.165922 125.283069,330 117,330" id="Fill-14"></path>
            <path d="M178.998569,318 C170.71629,318 164,325.16235 164,333.997081 C164,342.83765 170.71629,350 178.998569,350 C187.28371,350 194,342.83765 194,333.997081 C194,325.16235 187.28371,318 178.998569,318" id="Fill-16"></path>
            <path d="M177.024326,375.004665 C175.775921,374.83793 170.387165,379.176 166.006296,382.403501 C163.9533,383.918997 161.387771,385.273713 159.211653,385.890035 C156.743476,386.589724 154.132134,386.256255 152.021872,386.291984 C147.549377,386.354509 138.389637,384.249488 135.383158,384.362629 C133.247126,384.437064 133.848422,387.286435 135.408927,388.468462 C136.496987,389.308089 136.90644,388.929959 141.945872,389.969071 C146.979577,391.008183 154.103501,391.490522 159.838718,390.311472 C162.046333,389.85593 165.456539,388.182632 168.168097,386.396193 C172.494564,383.573619 175.910497,380.060288 176.866844,379.432057 C178.430213,378.413786 178.272731,375.177354 177.024326,375.004665" id="Fill-18"></path>
            <path d="M407.293068,189.53318 C407.293068,216.478491 403.973898,227.693925 394.123085,246.080545 C390.974055,251.944994 386.593673,259.869067 376.538115,268.895068 C362.275199,281.694163 348.263168,292.436518 312.32904,293.835563 C284.149256,294.931722 254.040258,282.594167 237.3925,263.197928 C230.39081,255.03443 225.064565,249.276713 219.132738,236.039154 C213.973749,224.526603 211.398581,215.835219 209.602019,204.683247 C216.205754,204.109206 238.433525,201.882273 251.427601,197.044751 C261.483159,193.303389 277.306171,187.998558 287.572241,176.021582 C299.871338,161.670557 302.864647,144.521443 302.864647,144.521443 C302.864647,144.521443 308.6148,162.380175 337.08584,176.018697 C363.483481,188.662022 393.511735,189.481257 407.293068,189.530295 L407.293068,189.53318 Z M409.637539,170.457134 C409.01177,166.95808 407.996698,163.262872 406.797067,159.561894 C398.624584,129.980033 378.677841,105.175115 352.187921,91.2279385 C351.074802,90.6048589 349.984753,90.0250486 348.946611,89.5231233 C345.575534,87.8961931 342.573574,86.2144549 339.254403,85.0981038 C338.931426,84.9913726 338.608448,84.9048337 338.285471,84.7952179 L302.925205,79.0086539 L302.879066,79 C302.760833,79 302.639716,79.0115385 302.521483,79.0115385 C301.362225,79.0259617 300.202967,79.0432694 299.032173,79.1067312 C294.888257,79.2884628 290.79048,79.7673111 286.747495,80.520199 C286.513913,80.5605838 286.288982,80.5778916 286.052516,80.621161 C284.02814,81.0019319 282.231577,81.4288569 280.49269,81.9134744 C279.368036,82.2307835 278.266452,82.5711696 277.144682,82.9432866 C273.456395,84.0625223 269.814247,85.3461818 266.27303,86.9413812 C266.183634,86.9731121 266.108657,87.0019584 266.016378,87.0394585 C266.010611,87.0394585 266.007727,87.0423432 266.001959,87.0423432 L249.651225,97.057772 L246.456055,99.0164344 C241.813254,102.671258 237.395383,106.770315 233.286072,111.34822 C212.370397,134.638707 202.288886,165.79846 205.628242,196.842827 C212.165652,257.688288 253.907607,297 311.968575,297 C369.288424,297 410.900611,251.809416 410.900611,189.536064 C410.900611,189.536064 411.52638,181.023527 409.637539,170.457134 Z" id="Fill-20"></path>
            <path d="M318.1939,264.781442 C304.171703,264.671922 300.053154,261.254325 300.053154,261.254325 C300.053154,261.254325 297.421456,261.678366 298.117059,263.043158 C298.818459,264.396717 302.664564,266.789315 317.37077,267.996847 C318.118544,268.061436 323.85437,267.11226 324.570261,267.11226 C336.32885,265.424523 340.302482,255.983308 340.887948,254.865638 C341.476313,253.742353 339.598184,252.164137 338.725782,253.528929 C337.864974,254.885296 332.845039,264.893771 318.1939,264.781442" id="Fill-22"></path>
            <path d="M282.702056,203.756846 C283.365468,200.980376 284.493561,197.570271 284.414653,193.396924 C284.195464,192.535757 283.494059,191.4845 282.412727,192.285184 C281.331394,193.085867 280.741045,200.804686 279.659713,202.662387 C277.739617,202.149719 273.779602,202.368611 271.730915,202.662387 C270.719723,202.800634 269.898495,191.533463 267.358825,193.396924 C264.822077,195.269026 268.904838,199.119795 268.367094,203.428509 C266.330098,203.918135 262.107056,206.187698 260.610726,208.376617 C258.865981,206.020649 255.998989,199.010349 254.31854,201.199268 C252.643936,203.396827 258.106126,206.651404 258.337005,211.236613 C245.562669,243.923507 295.827094,245.617039 289.435543,215.689334 C288.523716,211.455504 287.2758,209.004491 282.702056,203.756846" id="Fill-24"></path>
            <path d="M372.121866,202.252216 C371.626763,197.726444 376.516275,193.692727 374.512425,191.796023 C372.514433,189.902178 370.780106,197.220084 369.420769,199.797657 C367.598554,197.875205 363.054735,196.293187 360.957137,196.1244 C359.74428,191.976252 363.180708,187.576355 360.365357,186.128794 C357.558794,184.684094 358.528494,195.86979 357.508991,195.881233 C355.43483,195.90412 351.474003,196.293187 349.654717,197.088487 C348.29245,195.426367 346.481954,187.951118 345.289604,187.327466 C344.085536,186.709535 343.555277,187.84813 343.479108,188.726393 C344.062099,192.825908 345.720256,196.001386 346.815929,198.627593 C343.118766,204.477912 342.27211,207.066929 342.037741,211.363838 C340.444036,241.696813 389.948519,232.382075 372.121866,202.252216" id="Fill-26"></path>
            <polygon id="Fill-28" points="282 73.7777778 233 62 237.874163 101"></polygon>
            <polygon id="Fill-30" points="330.077681 44 287 73.0177012 336 81"></polygon>
        </g>
    </g>
</svg>